<!-- icon666.com - MILLIONS OF FREE VECTOR ICONS --><svg viewBox="0 0 32 32" xmlns="http://www.w3.org/2000/svg"><g id="bubble_comment" data-name="bubble comment"><path d="m25.17 5h-18.34a2.76 2.76 0 0 0 -2.83 2.67v11.66a2.76 2.76 0 0 0 2.83 2.67h1.75v4a1 1 0 0 0 .56.9 1 1 0 0 0 .44.1 1 1 0 0 0 .62-.21l6.14-4.79h8.83a2.76 2.76 0 0 0 2.83-2.67v-11.66a2.76 2.76 0 0 0 -2.83-2.67zm-15.17 10a2 2 0 1 1 2-2 2 2 0 0 1 -2 2zm6 0a2 2 0 1 1 2-2 2 2 0 0 1 -2 2zm6 0a2 2 0 1 1 2-2 2 2 0 0 1 -2 2z"></path></g></svg>