<!-- icon666.com - MILLIONS OF FREE VECTOR ICONS --><svg id="Layer_3" enable-background="new 0 0 60 60" viewBox="0 0 60 60" xmlns="http://www.w3.org/2000/svg"><path d="m7.55 21.6c.36.12.76.03 1.03-.24l1.89-1.87v1.09c0 .55.44 1 1 1h5.09v.31c0 .55.44.99.99 1h.16l-2.3 2.28c-.19.19-.3.45-.3.71v4.76l-2.05.48c-.38.08-.68.38-.76.76-.08.39.07.78.38 1.01l2.35 1.76-1.13 1.48c-.26.34-.27.8-.04 1.16l1.26 1.92-1.98 3.46c-.15.26-.17.57-.07.85.11.29.34.5.63.59l2.24.73 3.18 4.96c.16.26.43.42.73.46h.11c.26 0 .51-.1.7-.28l3.99-3.93h8.31c.28 0 .55-.12.74-.33l2.44-2.72 1.43.21c.51.08 1-.25 1.12-.76l1.01-4.25 2.18-1.03c.3-.14.51-.41.56-.74.06-.32-.05-.65-.28-.88l-2.17-2.13 4.46-7.49 6.01-1.36c.19-.04.37-.14.5-.28l2.76-2.87c.18-.19.28-.44.28-.69v-1.89c0-.55-.45-1-1-1h-5.15l.11-.74c.07-.45-.18-.9-.6-1.07l-3.05-1.27c-.34-.14-.73-.09-1.01.14-.29.23-.42.59-.36.95l.07.42-6.07-1.2v-.99c0-.48-.34-.89-.81-.98l-8.35-1.63c-.43-.09-.87.12-1.08.51l-.86 1.61-5.49-1.84c-.12-.04-.24-.05-.37-.05l-6.12.35-.16-1.73c-.04-.4-.31-.74-.7-.86-.38-.12-.8 0-1.06.3l-3 3.5h-1.94c-.29 0-.56.13-.75.35-.19.21-.28.5-.24.79l.87 6.39c.05.37.31.69.67.81z"></path><path d="m41.01 48.54c-.4.38-.42 1.01-.04 1.41l.3.32c.2.21.46.31.73.31.25 0 .49-.09.69-.27.4-.38.42-1.01.04-1.41l-.31-.32c-.38-.41-1.01-.42-1.41-.04z"></path><path d="m47.1 46.46c.39 0 .78-.08 1.15-.26l.51-.24c.68-.33 1.2-.93 1.41-1.65.22-.72.12-1.5-.26-2.15l-2.05-3.42c-.16-.26-.43-.44-.74-.47-.3-.04-.61.06-.83.28l-4 4c-.21.22-.32.52-.28.83.03.3.21.57.47.73l3.23 1.96c.42.26.9.39 1.39.39z"></path><path d="m51.69 37.15c.4-.38.42-1.02.04-1.42l-.31-.32c-.38-.4-1.01-.42-1.41-.04s-.42 1.01-.04 1.42l.3.32c.2.2.46.31.73.31.25 0 .49-.09.69-.27z"></path></svg>